<svg xmlns="http://www.w3.org/2000/svg" width="100" height="100" viewBox="0 0 100 100">
  <g fill="none" fill-rule="evenodd">
    <rect width="100" height="100"/>
    <g transform="translate(1 2)">
      <path stroke="#1E2126" stroke-width="2" d="M15.3413725 6.07901961L14.1286275 5.1045098M10.2747059 1.17509804L9.06196078.200588235M9.21588235 6.27911765L10.3776471 5.22715686M14.0258824 1.05156863L15.1876471.000588235294M91.8048039 69.7872549L86.7038235 69.7872549M89.2543137 72.3377451L89.2543137 67.2367647" stroke-linecap="round" stroke-linejoin="round"/>
      <g transform="translate(0 9.742)">
        <path stroke="#1E2126" stroke-width="2" d="M4.32490196,1.76460784 C5.19843137,2.80088235 5.06607843,4.34696078 4.02980392,5.21852941 C2.9954902,6.09107843 1.44843137,5.95872549 0.576862745,4.92441176 C-0.295686275,3.88813725 -0.163333333,2.34205882 0.871960784,1.4695098 C1.90627451,0.597941176 3.45235294,0.729313725 4.32490196,1.76460784 Z" stroke-linecap="round" stroke-linejoin="round"/>
        <path fill="#F3F9FF" d="M69.4693137,7.81921569 L69.4693137,7.81921569 C65.3134314,7.81921569 61.9448039,11.1878431 61.9448039,15.3427451 L61.9448039,20.1584314 L10.362451,20.1584314 C9.40264706,20.1584314 8.62421569,19.3809804 8.62421569,18.4201961 L8.62421569,15.3427451 C8.62421569,11.1878431 11.9938235,7.81921569 16.1487255,7.81921569 L69.4693137,7.81921569 Z"/>
        <path stroke="#1E2126" stroke-width="2" d="M69.4693137,7.81921569 L69.4693137,7.81921569 C65.3134314,7.81921569 61.9448039,11.1878431 61.9448039,15.3427451 L61.9448039,20.1584314 L10.362451,20.1584314 C9.40264706,20.1584314 8.62421569,19.3809804 8.62421569,18.4201961 L8.62421569,15.3427451 C8.62421569,11.1878431 11.9938235,7.81921569 16.1487255,7.81921569 L69.4693137,7.81921569 Z" stroke-linecap="round" stroke-linejoin="round"/>
        <path fill="#FFFFFF" d="M16.1490196,7.81921569 L16.1490196,7.81921569 C20.3039216,7.81921569 23.6735294,11.1878431 23.6735294,15.3427451 L23.6735294,60.9084314 L23.6735294,63.5427451 L23.6735294,74.8290196 C23.6735294,78.9839216 27.0411765,82.352549 31.1970588,82.352549 L84.5166667,82.352549 C80.3617647,82.352549 76.9931373,78.9839216 76.9931373,74.8290196 L76.9931373,63.5427451 L76.9931373,57.0868627 L76.9931373,15.3427451 C76.9931373,11.1878431 73.6245098,7.81921569 69.4696078,7.81921569 L16.1490196,7.81921569 Z"/>
        <path stroke="#1E2126" stroke-width="2" d="M76.9926471 74.8287255L76.9926471 63.542451 76.9926471 57.0865686 76.9926471 15.342451C76.9926471 11.187549 73.6240196 7.81892157 69.4691176 7.81892157L15.2808824 7.81892157M23.6733333 55.0264706L23.6733333 63.5431373 23.6733333 74.8284314C23.6733333 78.9843137 27.0419608 82.3529412 31.1968627 82.3529412M23.6733333 49.1718627L23.6733333 51.4012745" stroke-linecap="round" stroke-linejoin="round"/>
        <path stroke="#1E2126" stroke-width="2" d="M16.1490196,7.81921569 L16.1490196,7.81921569 C20.3039216,7.81921569 23.6735294,11.1878431 23.6735294,15.3427451 L23.6735294,42.5211765" stroke-linecap="round" stroke-linejoin="round"/>
        <path fill="#F3F9FF" d="M31.1966667,82.3530392 L31.1966667,82.3530392 C35.352549,82.3530392 38.7211765,78.9834314 38.7211765,74.8285294 L38.7211765,71.7510784 C38.7211765,70.7912745 39.4996078,70.0138235 40.4584314,70.0138235 L84.5172549,70.0138235 C85.4760784,70.0138235 86.2545098,70.7912745 86.2545098,71.7510784 L86.2545098,74.8285294 C86.2545098,78.9834314 82.8858824,82.3530392 78.73,82.3530392 L31.1966667,82.3530392 Z"/>
        <path stroke="#1E2126" stroke-width="2" d="M31.1966667 82.3530392L31.1966667 82.3530392C35.352549 82.3530392 38.7211765 78.9834314 38.7211765 74.8285294L38.7211765 71.7510784C38.7211765 70.7912745 39.4996078 70.0138235 40.4584314 70.0138235L84.5172549 70.0138235C85.4760784 70.0138235 86.2545098 70.7912745 86.2545098 71.7510784L86.2545098 74.8285294C86.2545098 78.9834314 82.8858824 82.3530392 78.73 82.3530392L31.1966667 82.3530392zM42.2365686 20.1584314L50.5944118 20.1584314M34.3809804 20.1584314L37.6123529 20.1584314M34.3809804 27.1246078L60.7339216 27.1246078M34.3809804 34.0897059L68.3966667 34.0897059M48.1438235 41.0558824L58.2448039 41.0558824M34.3809804 41.0558824L41.875098 41.0558824M34.3809804 48.0210784L52.0407843 48.0210784M34.3809804 54.9872549L48.3760784 54.9872549M34.3809804 61.9533333L43.63 61.9533333" stroke-linecap="round" stroke-linejoin="round"/>
        <polygon fill="#FFFFFF" points="67.202 60.045 57.886 56.718 57.928 46.827 84.541 28.154 97.536 28.899 93.816 41.374"/>
        <polygon fill="#FC964B" points="90.245 43.878 81.929 39.851 80.971 30.66 84.541 28.154 97.536 28.9 93.817 41.373"/>
        <polygon fill="#FC964B" points="82.196 49.526 73.879 45.499 72.922 36.308 76.946 33.483 77.903 42.675 86.221 46.702"/>
        <polygon fill="#C9D2F0" fill-opacity=".8" points="97.538 28.9 57.887 56.718 67.203 60.046 93.815 41.374" style="mix-blend-mode:multiply"/>
        <polygon stroke="#1E2126" stroke-width="2" points="67.202 60.045 57.886 56.718 57.928 46.827 84.541 28.154 97.536 28.899 93.816 41.374" stroke-linecap="round" stroke-linejoin="round"/>
        <polyline stroke="#1E2126" stroke-width="2" points="80.971 30.659 81.929 39.85 90.245 43.878" stroke-linecap="round" stroke-linejoin="round"/>
        <polyline stroke="#1E2126" stroke-width="2" points="76.946 33.483 77.904 42.675 86.221 46.701" stroke-linecap="round" stroke-linejoin="round"/>
        <polyline stroke="#1E2126" stroke-width="2" points="72.922 36.307 73.879 45.498 82.196 49.526" stroke-linecap="round" stroke-linejoin="round"/>
        <path stroke="#1E2126" stroke-width="2" d="M66.2858824 50.8244118L50.3339216 62.017549M90.0997059 34.117549L69.5585294 48.5293137" stroke-linecap="round" stroke-linejoin="round"/>
      </g>
    </g>
  </g>
</svg>
