<svg xmlns="http://www.w3.org/2000/svg" width="100" height="100" viewBox="0 0 100 100">
  <g fill="none" fill-rule="evenodd">
    <rect width="100" height="100"/>
    <g transform="translate(7 4)">
      <path stroke="#1E2126" stroke-width="2" d="M50.7021,78.4322 L50.7021,72.7092 C50.7021,70.5782 51.3831,68.5022 52.6451,66.7862 L63.3831,52.1802 C65.4031,49.4322 65.8841,45.8432 64.6561,42.6612 L59.6201,29.5972" stroke-linecap="round" stroke-linejoin="round"/>
      <path fill="#869BE2" d="M46.9833,47.2681 L26.9023,50.8091 C25.7333,51.0151 24.6183,50.2351 24.4123,49.0661 L17.3643,9.0901 C17.1573,7.9211 17.9383,6.8061 19.1073,6.6001 L39.1883,3.0591 C40.3573,2.8531 41.4723,3.6341 41.6783,4.8031 L48.7273,44.7781 C48.9333,45.9471 48.1523,47.0621 46.9833,47.2681"/>
      <path stroke="#1E2126" stroke-width="2" d="M46.9833,47.2681 L26.9023,50.8091 C25.7333,51.0151 24.6183,50.2351 24.4123,49.0661 L17.3643,9.0901 C17.1573,7.9211 17.9383,6.8061 19.1073,6.6001 L39.1883,3.0591 C40.3573,2.8531 41.4723,3.6341 41.6783,4.8031 L48.7273,44.7781 C48.9333,45.9471 48.1523,47.0621 46.9833,47.2681 Z" stroke-linecap="round" stroke-linejoin="round"/>
      <path fill="#869BE2" d="M34.6777,47.2681 L54.7587,50.8091 C55.9277,51.0151 57.0427,50.2351 57.2487,49.0661 L64.2977,9.0901 C64.5037,7.9211 63.7237,6.8061 62.5547,6.6001 L42.4727,3.0591 C41.3037,2.8531 40.1897,3.6341 39.9837,4.8031 L32.9347,44.7781 C32.7287,45.9471 33.5087,47.0621 34.6777,47.2681"/>
      <path stroke="#1E2126" stroke-width="2" d="M34.6777,47.2681 L54.7587,50.8091 C55.9277,51.0151 57.0427,50.2351 57.2487,49.0661 L64.2977,9.0901 C64.5037,7.9211 63.7237,6.8061 62.5547,6.6001 L42.4727,3.0591 C41.3037,2.8531 40.1897,3.6341 39.9837,4.8031 L32.9347,44.7781 C32.7287,45.9471 33.5087,47.0621 34.6777,47.2681 Z" stroke-linecap="round" stroke-linejoin="round"/>
      <path fill="#A7BBF4" d="M51.0878,47.9937 L30.6958,47.9937 C29.5098,47.9937 28.5468,47.0317 28.5468,45.8447 L28.5468,2.1487 C28.5468,0.9627 29.5098,-0.0003 30.6958,-0.0003 L51.0878,-0.0003 C52.2748,-0.0003 53.2358,0.9627 53.2358,2.1487 L53.2358,45.8447 C53.2358,47.0317 52.2748,47.9937 51.0878,47.9937"/>
      <path stroke="#1E2126" stroke-width="2" d="M51.0878,47.9937 L30.6958,47.9937 C29.5098,47.9937 28.5468,47.0317 28.5468,45.8447 L28.5468,2.1487 C28.5468,0.9627 29.5098,-0.0003 30.6958,-0.0003 L51.0878,-0.0003 C52.2748,-0.0003 53.2358,0.9627 53.2358,2.1487 L53.2358,45.8447 C53.2358,47.0317 52.2748,47.9937 51.0878,47.9937 Z" stroke-linecap="round" stroke-linejoin="round"/>
      <polyline stroke="#1E2126" stroke-width="2" points="33.921 31.172 33.921 5.372 47.863 5.372 47.863 13.969" stroke-linecap="round" stroke-linejoin="round"/>
      <polyline stroke="#1E2126" stroke-width="2" points="47.863 22.973 47.863 42.62 40.424 42.62" stroke-linecap="round" stroke-linejoin="round"/>
      <path stroke="#1E2126" stroke-width="2" d="M47.8632,17.9996 L47.8632,18.4056" stroke-linecap="round" stroke-linejoin="round"/>
      <path fill="#FFFFFF" d="M41.4384,48.8386086 L41.4384,40.5275723 C41.4384,38.6751025 39.6124,37.1729 37.3594,37.1729 L37.3564,37.1729 C35.1024,37.1729 33.2764,38.6751025 33.2764,40.5275723 L33.2764,83.0982"/>
      <path stroke="#1E2126" stroke-width="2" d="M41.4384 51.3609L41.4384 41.2529C41.4384 38.9999 39.6124 37.1729 37.3594 37.1729L37.3564 37.1729C35.1024 37.1729 33.2764 38.9999 33.2764 41.2529L33.2764 91.0279M50.7021 83.0982L50.7021 84.4322M6.2001 47.4263L5.2071 48.6633M1.1982 52.5943L.2042 53.8313M6.4052 53.6744L5.3322 52.4894M1.0732 48.7681L.0002 47.5831M83.2353 34.9957L83.2353 40.1987M85.8368 37.5972L80.6338 37.5972M16.6767 61.9009C17.7327 61.0109 19.3097 61.1459 20.1987 62.2019 21.0887 63.2569 20.9537 64.8349 19.8987 65.7239 18.8427 66.6139 17.2657 66.4789 16.3747 65.4229 15.4857 64.3679 15.6197 62.7909 16.6767 61.9009zM76.0224 24.1919C77.0784 23.3019 78.6554 23.4369 79.5444 24.4929 80.4344 25.5479 80.3004 27.1259 79.2444 28.0149 78.1884 28.9049 76.6114 28.7699 75.7214 27.7139 74.8324 26.6589 74.9664 25.0819 76.0224 24.1919zM38.3954 68.7652L41.1754 68.7652" stroke-linecap="round" stroke-linejoin="round"/>
    </g>
  </g>
</svg>
